# xmcd
#
# Track frame offsets:
#	150
#	34632
#	84295
#	119580
#	154305
#	168807
#	181267
#	191085
#	196712
#	205575
#	213922
#	233865
#	268282
#	319119
#
# Disc length: 4717 seconds
#
# Revision: 1
# Processed by: cddbd v1.5.1PL0 Copyright (c) Steve Scherf et al.
# Submitted via: CDex 1.50Beta5
#
DISCID=ba126b0e
DTITLE=神奈川大学吹奏楽部 - SYMPHONIC MOMENT for Symphonic Band
DYEAR=1900
DGENRE=Classical
TTITLE0=喜歌劇「美しきガラテア」序曲
TTITLE1=のための交響的瞬間
TTITLE2=風紋(原典版)
TTITLE3=バレエ音楽「中国の不思議な役人」より
TTITLE4=のための交響組曲「利家とまつ」
TTITLE5=のための交響組曲「利家とまつ」
TTITLE6=のための交響組曲「利家とまつ」
TTITLE7=のための交響組曲「利家とまつ」
TTITLE8=のための交響組曲「利家とまつ」
TTITLE9=のための交響組曲「利家とまつ」
TTITLE10=コンチェルト・グロッソ
TTITLE11=コンチェルト・グロッソ
TTITLE12=ブルー・シェイド
TTITLE13=行進曲「威風堂々」第1番
EXTD=
EXTT0=
EXTT1=
EXTT2=
EXTT3=
EXTT4=
EXTT5=
EXTT6=
EXTT7=
EXTT8=
EXTT9=
EXTT10=
EXTT11=
EXTT12=
EXTT13=
PLAYORDER=
